<?xml version="1.0" standalone="no"?>
<!DOCTYPE svg PUBLIC "-//W3C//DTD SVG 20010904//EN"
 "http://www.w3.org/TR/2001/REC-SVG-20010904/DTD/svg10.dtd">
<svg version="1.0" xmlns="http://www.w3.org/2000/svg"
 width="100.000000pt" height="100.000000pt" viewBox="0 0 100.000000 100.000000"
 preserveAspectRatio="xMidYMid meet">
<metadata>
Created by potrace 1.16, written by Peter Selinger 2001-2019
</metadata>
<g transform="translate(0.000000,100.000000) scale(0.100000,-0.100000)"
fill="#000000" stroke="none">
<path d="M420 850 c-11 -11 -20 -26 -20 -34 0 -9 -15 -17 -38 -21 -85 -14 -93
-25 -181 -250 -45 -113 -81 -213 -81 -221 0 -11 15 -14 68 -14 l67 0 53 103
c29 56 51 91 48 77 -2 -14 -10 -87 -17 -163 -10 -109 -10 -140 0 -150 17 -17
345 -17 363 1 10 10 9 44 -4 174 -9 90 -16 164 -14 165 1 1 26 -45 56 -102
l55 -105 72 0 73 0 -19 48 c-61 151 -174 390 -192 405 -12 9 -41 22 -65 28
-26 7 -44 17 -44 25 0 33 -38 54 -100 54 -47 0 -64 -4 -80 -20z"/>
</g>
</svg>
