<?xml version="1.0" encoding="iso-8859-1"?>
<!-- Generator: Adobe Illustrator 18.0.0, SVG Export Plug-In . SVG Version: 6.00 Build 0)  -->
<!DOCTYPE svg PUBLIC "-//W3C//DTD SVG 1.1//EN" "http://www.w3.org/Graphics/SVG/1.1/DTD/svg11.dtd">
<svg version="1.1" id="Capa_1" xmlns="http://www.w3.org/2000/svg" xmlns:xlink="http://www.w3.org/1999/xlink" x="0px" y="0px"
	 viewBox="0 0 401.749 401.749" style="enable-background:new 0 0 401.749 401.749;" xml:space="preserve">
<path d="M341.093,210.956c-1.424-20.316-2.897-41.321-2.897-59.316c0-89.053-21.308-101.503-23.736-102.629l-52.574-20.219
	c-9.996-14.735-26.77-26.192-29.438-27.96c-0.852-0.564-1.812-0.83-2.762-0.829V0h-0.033c-0.005,0-0.01,0-0.015,0h-57.577
	c-0.982,0-1.943,0.289-2.762,0.832c-2.668,1.768-19.441,13.225-29.438,27.961L87.291,49.011
	c-2.43,1.126-23.738,13.576-23.738,102.629c0,17.995-1.473,39.001-2.896,59.316c-1.432,20.434-2.785,39.734-2.785,56.422
	c0,33.25,2.816,128.516,2.844,129.475c0.04,1.345,0.62,2.616,1.609,3.528c0.926,0.853,2.136,1.323,3.389,1.323
	c0.086,0,43.817-2.263,43.817-2.263c2.657-0.138,4.741-2.332,4.741-4.993v-4.864c14.599,4.356,34.999,9.83,50.726,11.651
	c1.779,0.206,3.468,0.303,5.075,0.303c17.486,0,25.061-11.439,26.651-18.036c0.025-0.105,4.151-23.748,4.151-23.748l4.083,23.416
	c1.179,6.905,7.977,18.579,25.261,18.579c2.084,0,4.323-0.17,6.721-0.538c15.592-2.397,35.968-7.785,50.541-11.953v5.19
	c0,2.661,2.084,4.855,4.741,4.993c0,0,43.731,2.263,43.817,2.263c1.253,0,2.463-0.471,3.389-1.323
	c0.989-0.912,1.569-2.184,1.609-3.528c0.028-0.959,2.842-96.225,2.842-129.475C343.878,250.69,342.526,231.39,341.093,210.956z
	 M234.585,78.582c5.966-29.164,7.316-47.043,6.334-58.313c8.255,7.572,16.627,17.361,18.19,26.382l-14.112,2.964
	c-1.945,0.408-3.464,1.93-3.868,3.876s0.383,3.946,2.005,5.097l15.601,11.055c-3.774,16.543-22.278,93.147-50.207,136.691
	C211.946,189.665,230.215,99.947,234.585,78.582z M174.158,10h53.435c1.541,1.666,3.509,5.902,3.609,16.627h-60.65
	C170.654,15.913,172.617,11.666,174.158,10z M147.296,35.742c0.008-0.012,0.014-0.023,0.021-0.035
	c3.543-5.507,8.547-10.863,13.512-15.423c-0.98,11.271,0.371,29.145,6.334,58.298c4.411,21.564,22.675,111.248,26.065,127.781
	c-27.915-43.511-46.434-120.169-50.213-136.721l15.601-11.055c1.622-1.15,2.409-3.15,2.005-5.097s-1.923-3.468-3.868-3.876
	l-14.111-2.964C143.265,43.076,144.961,39.377,147.296,35.742z M104.271,389.7l-33.709,1.746
	c-0.585-20.295-2.691-95.414-2.691-124.068c0-16.338,1.341-35.469,2.761-55.723c1.437-20.486,2.921-41.671,2.921-60.016
	c0-54.526,8.033-77.953,13.426-87.536c0,0,26.916,99.766,30.053,124.088c-16.394,35.648-9.965,100.616-8.969,109.662
	c-10.207,38.506-15.647,80.014-15.707,80.471c-0.305,2.358,1.092,4.604,3.341,5.373c0.454,0.155,3.64,1.239,8.575,2.808V389.7z
	 M120.242,210.802c3.087,28.931,0.189,44.798-4,59.336C115.675,252.713,116.085,229.947,120.242,210.802z M193.615,343.174
	l-6.644,38.103c-0.368,1.335-3.866,11.993-20.824,10.025c-21.159-2.45-52.419-12.224-63.309-15.772
	c1.765-12.3,7.62-50.192,17.115-83.179l39.138-3.094c2.752-0.218,4.808-2.626,4.59-5.378c-0.217-2.753-2.627-4.81-5.379-4.591
	l-35.238,2.786c0.018-0.055,24.002-39.168-8.041-149.995L95.359,56.611l38.109-14.648c-0.822,2.955-1.215,5.96-1.049,8.975
	c0.124,2.259,1.75,4.152,3.965,4.617l7.109,1.494l-8.973,6.357c-1.629,1.154-2.416,3.168-2,5.12
	c1.018,4.786,25.182,116.708,65.041,160.06c0.586,3.825,1.061,7.721,1.439,11.652c-2.479-1.925-5.581-3.083-8.955-3.083
	c-8.074,0-14.643,6.569-14.643,14.645c0,8.075,6.568,14.645,14.643,14.645c3.942,0,7.52-1.573,10.154-4.116
	C200.888,303.641,193.722,342.603,193.615,343.174z M194.691,251.8c0,2.561-2.084,4.645-4.645,4.645
	c-2.561,0-4.643-2.084-4.643-4.645c0-2.561,2.082-4.645,4.643-4.645C192.607,247.155,194.691,249.239,194.691,251.8z
	 M200.875,193.855c-3.017-14.757-19.503-95.711-23.915-117.277c-3.563-17.414-5.355-30.346-6.057-39.951h59.941
	c-0.7,9.605-2.495,22.537-6.057,39.951C220.418,97.945,203.925,178.94,200.875,193.855z M235.419,391.326
	c-17.629,2.713-20.361-8.596-20.607-9.855l-6.689-38.359c-0.01-0.054-0.993-5.341-2.188-13.929
	c3.133-22.815,7.392-66.295,1.222-103.976c38.094-45.506,61.1-152.104,62.073-156.68c0.415-1.952-0.371-3.966-2-5.12l-8.973-6.357
	l7.109-1.494c2.215-0.465,3.841-2.359,3.965-4.618c0.166-3.015-0.228-6.019-1.05-8.974l38.11,14.648l-19.674,75.504
	c-31.638,108.35-8.049,149.903-8.032,149.958l-35.238-2.785c-2.735-0.222-5.16,1.837-5.378,4.591
	c-0.218,2.752,1.838,5.16,4.591,5.378l39.137,3.094c9.474,32.911,15.324,70.706,17.102,83.095
	C287.86,378.816,256.537,388.08,235.419,391.326z M281.507,210.799c4.151,19.136,4.563,41.901,3.999,59.326
	C281.318,255.589,278.421,239.721,281.507,210.799z M331.189,391.446L297.48,389.7v-3.37c4.872-1.461,8.018-2.455,8.469-2.598
	c2.306-0.731,3.758-3.009,3.447-5.408c-0.059-0.457-5.5-41.966-15.707-80.473c0.998-9.051,7.425-74.017-8.97-109.662
	c11.835-60.221,30.054-124.085,30.054-124.085c5.392,9.585,13.424,33.013,13.424,87.535c0,18.345,1.485,39.529,2.921,60.016
	c1.42,20.254,2.761,39.385,2.761,55.723C333.878,296.031,331.774,371.151,331.189,391.446z"/>
<g>
</g>
<g>
</g>
<g>
</g>
<g>
</g>
<g>
</g>
<g>
</g>
<g>
</g>
<g>
</g>
<g>
</g>
<g>
</g>
<g>
</g>
<g>
</g>
<g>
</g>
<g>
</g>
<g>
</g>
</svg>
