<?xml version="1.0" standalone="no"?>
<!DOCTYPE svg PUBLIC "-//W3C//DTD SVG 20010904//EN"
 "http://www.w3.org/TR/2001/REC-SVG-20010904/DTD/svg10.dtd">
<svg version="1.0" xmlns="http://www.w3.org/2000/svg"
 width="48.000000pt" height="48.000000pt" viewBox="0 0 48.000000 48.000000"
 preserveAspectRatio="xMidYMid meet">
<metadata>
Created by potrace 1.16, written by Peter Selinger 2001-2019
</metadata>
<g transform="translate(0.000000,48.000000) scale(0.100000,-0.100000)"
fill="#000000" stroke="none">
<path d="M200 433 c0 -10 7 -53 15 -96 20 -105 20 -106 -15 -62 -35 44 -36 50
-12 64 15 9 15 10 -5 11 -20 0 -21 3 -12 26 13 36 8 38 -34 18 -53 -25 -70
-69 -75 -192 l-5 -102 36 0 36 0 4 83 c2 70 3 65 5 -35 l2 -118 100 0 100 0 2
118 c2 113 2 114 7 37 l6 -80 34 -3 34 -3 -5 103 c-6 122 -24 167 -75 192 -42
20 -47 17 -34 -18 9 -23 8 -26 -12 -26 -20 -1 -20 -2 -4 -11 24 -14 21 -28
-13 -69 -35 -40 -35 -38 -15 67 22 113 22 113 -25 113 -31 0 -40 -4 -40 -17z"/>
</g>
</svg>
