<svg height="511pt" viewBox="-51 1 511 511.99999" width="511pt" xmlns="http://www.w3.org/2000/svg"><path d="m406.085938 235.292969-35.707032-44.632813v-170.847656c0-10.925781-8.886718-19.8125-19.8125-19.8125h-290.207031c-10.921875 0-19.8125 8.886719-19.8125 19.8125v170.847656l-35.707031 44.636719c-2.800782 3.496094-4.339844 7.890625-4.339844 12.371094v244.519531c0 10.925781 8.886719 19.8125 19.8125 19.8125h370.304688c10.921874 0 19.808593-8.886719 19.808593-19.8125v-244.519531c0-4.484375-1.542969-8.878907-4.339843-12.375zm-375.550782 91.753906h159.910156v62.367187h-159.910156zm189.945313 0h159.910156v62.367187h-159.910156zm124.203125-120.425781 35.707031 44.636718v45.753907h-159.910156v-175.855469c47.113281-6.636719 84.484375-44.007812 91.121093-91.121094h28.742188v164.210938c0 4.488281 1.542969 8.882812 4.339844 12.375zm-139.21875-114.445313c-37.40625 0-68.671875-26.761719-75.679688-62.140625h151.355469c-7.007813 35.378906-38.273437 62.140625-75.675781 62.140625zm-139.21875 114.445313c2.796875-3.5 4.339844-7.894532 4.339844-12.375v-164.210938h28.738281c6.636719 47.113282 44.007812 84.484375 91.121093 91.121094v175.855469h-159.910156v-45.757813zm-35.710938 212.832031h159.910156v62.511719h-159.910156zm189.945313 62.511719v-62.515625h159.910156v62.515625zm0 0"/><path d="m279.023438 158.226562c-22.058594 0-40.007813 17.949219-40.007813 40.007813 0 22.0625 17.949219 40.007813 40.007813 40.007813 22.0625 0 40.007812-17.945313 40.007812-40.007813 0-22.058594-17.945312-40.007813-40.007812-40.007813zm0 49.980469c-5.496094 0-9.972657-4.472656-9.972657-9.96875 0-5.5 4.476563-9.972656 9.972657-9.972656 5.5 0 9.972656 4.472656 9.972656 9.972656 0 5.496094-4.472656 9.96875-9.972656 9.96875zm0 0"/></svg>