<?xml version="1.0" standalone="no"?>
<!DOCTYPE svg PUBLIC "-//W3C//DTD SVG 20010904//EN"
 "http://www.w3.org/TR/2001/REC-SVG-20010904/DTD/svg10.dtd">
<svg version="1.0" xmlns="http://www.w3.org/2000/svg"
 width="52.000000pt" height="52.000000pt" viewBox="0 0 52.000000 52.000000"
 preserveAspectRatio="xMidYMid meet">
<metadata>
Created by potrace 1.16, written by Peter Selinger 2001-2019
</metadata>
<g transform="translate(0.000000,52.000000) scale(0.100000,-0.100000)"
fill="#000000" stroke="none">
<path d="M125 506 c-31 -9 -49 -24 -82 -71 -23 -33 -42 -65 -43 -72 0 -11 59
-53 76 -53 5 0 17 12 26 28 17 26 17 21 18 -155 l0 -183 140 0 140 0 0 183 c1
176 1 181 18 155 9 -16 21 -28 26 -28 17 0 76 42 76 53 -1 7 -20 39 -43 72
-39 55 -47 61 -99 74 -52 14 -59 13 -76 -2 -23 -21 -65 -22 -82 -2 -15 18 -40
18 -95 1z"/>
</g>
</svg>
