<?xml version="1.0" standalone="no"?>
<!DOCTYPE svg PUBLIC "-//W3C//DTD SVG 20010904//EN"
 "http://www.w3.org/TR/2001/REC-SVG-20010904/DTD/svg10.dtd">
<svg version="1.0" xmlns="http://www.w3.org/2000/svg"
 width="100.000000pt" height="100.000000pt" viewBox="0 0 100.000000 100.000000"
 preserveAspectRatio="xMidYMid meet">
<metadata>
Created by potrace 1.16, written by Peter Selinger 2001-2019
</metadata>
<g transform="translate(0.000000,100.000000) scale(0.100000,-0.100000)"
fill="#000000" stroke="none">
<path d="M426 974 c-20 -21 -26 -36 -26 -72 0 -41 5 -51 42 -89 37 -37 40 -45
28 -57 -8 -7 -110 -70 -227 -140 -117 -70 -219 -137 -228 -149 -8 -12 -15 -40
-15 -63 0 -55 33 -84 96 -84 36 0 44 3 44 18 0 13 -13 21 -45 30 -37 10 -45
16 -45 35 0 34 22 51 247 185 l203 121 203 -121 c225 -134 247 -151 247 -185
0 -19 -8 -25 -45 -35 -32 -9 -45 -17 -45 -30 0 -27 79 -25 114 3 21 16 26 29
26 64 0 26 -7 51 -18 65 -10 12 -117 82 -237 154 -204 122 -220 134 -226 165
-4 21 -19 44 -38 58 -53 42 -36 108 26 101 20 -2 32 -12 42 -35 20 -46 51 -45
51 1 0 51 -40 86 -100 86 -38 0 -53 -5 -74 -26z"/>
<path d="M192 448 c-17 -17 -17 -419 0 -436 17 -17 599 -17 616 0 17 17 17
419 0 436 -17 17 -599 17 -616 0z"/>
</g>
</svg>
