<?xml version="1.0" standalone="no"?>
<!DOCTYPE svg PUBLIC "-//W3C//DTD SVG 20010904//EN"
 "http://www.w3.org/TR/2001/REC-SVG-20010904/DTD/svg10.dtd">
<svg version="1.0" xmlns="http://www.w3.org/2000/svg"
 width="100.000000pt" height="100.000000pt" viewBox="0 0 100.000000 100.000000"
 preserveAspectRatio="xMidYMid meet">
<metadata>
Created by potrace 1.16, written by Peter Selinger 2001-2019
</metadata>
<g transform="translate(0.000000,100.000000) scale(0.100000,-0.100000)"
fill="#000000" stroke="none">
<path d="M317 863 c-3 -5 -13 -65 -23 -134 -17 -122 -17 -136 0 -350 10 -123
20 -232 22 -241 4 -15 17 -18 69 -18 52 0 65 3 69 18 3 9 13 85 22 167 9 83
20 153 23 157 4 5 15 -65 25 -154 10 -89 20 -168 23 -175 4 -9 25 -13 68 -13
52 0 65 3 69 18 2 9 13 119 22 243 17 221 17 229 -2 355 l-19 129 -182 3
c-100 1 -184 -1 -186 -5z m173 -139 c0 -38 3 -45 18 -42 11 2 18 14 20 33 l2
30 -14 -25 -15 -25 -1 38 c0 20 5 37 10 37 6 0 10 -6 11 -12 0 -10 2 -10 6 0
3 8 28 12 73 12 77 0 73 6 86 -122 5 -55 -20 -462 -31 -495 -5 -14 -71 -18
-79 -5 -2 4 -17 119 -32 255 -21 182 -31 247 -41 247 -7 0 -13 -1 -14 -2 0 -2
-15 -115 -32 -253 l-32 -250 -34 -3 c-18 -2 -37 0 -41 5 -5 4 -16 114 -26 243
-14 197 -15 247 -5 308 l13 72 79 0 79 0 0 -46z"/>
</g>
</svg>
