<svg id="Layer_1" height="512" viewBox="0 0 512 512" width="512" xmlns="http://www.w3.org/2000/svg" data-name="Layer 1"><path d="m402.55 73.04h-55.19l10.034-20.592a5.984 5.984 0 0 0 -4.618-8.567 317.493 317.493 0 0 0 -194.468.176c-.059.019-.119.039-.177.06l-.14.05v.006a5.984 5.984 0 0 0 -3.387 8.276l10.035 20.591h-55.189a36.041 36.041 0 0 0 -36 36v338.16a36.041 36.041 0 0 0 36 36h293.1a36.041 36.041 0 0 0 36-36v-338.16a36.041 36.041 0 0 0 -36-36zm-152.55 398.16h-140.55a24.027 24.027 0 0 1 -24-24v-338.16a24.027 24.027 0 0 1 24-24h61.036l28.02 57.508a6 6 0 0 0 9.26 1.96l42.234-35.586zm-77.04-408.485 72.083 34.691-39.121 32.964zm3.7-11.535a305.054 305.054 0 0 1 158.554.058l-79.214 38.123zm162.38 11.537-32.962 67.654-39.122-32.965zm87.51 384.483a24.027 24.027 0 0 1 -24 24h-140.55v-362.278l42.233 35.586a6 6 0 0 0 9.26-1.96l28.021-57.508h61.036a24.027 24.027 0 0 1 24 24z"/><path d="m391.51 197.79h-23.177a6 6 0 0 0 0 12h17.177v11.49h-81.02v-11.49h37.843a6 6 0 0 0 0-12h-43.843a6 6 0 0 0 -6 6v76.81a6 6 0 0 0 2.857 5.11l46.509 28.61a6 6 0 0 0 6.288 0l46.509-28.61a6 6 0 0 0 2.857-5.11v-76.81a6 6 0 0 0 -6-6zm-6 79.457-40.51 24.919-40.51-24.919v-43.967h81.02z"/><path d="m217 182h17a6 6 0 0 0 0-12h-17a6 6 0 0 0 0 12z"/><path d="m217 242h17a6 6 0 0 0 0-12h-17a6 6 0 0 0 0 12z"/><path d="m217 292h17a6 6 0 0 0 0-12h-17a6 6 0 0 0 0 12z"/><path d="m217 352h17a6 6 0 0 0 0-12h-17a6 6 0 0 0 0 12z"/><path d="m217 412h17a6 6 0 0 0 0-12h-17a6 6 0 0 0 0 12z"/><path d="m119.45 159.19a6 6 0 0 0 -6 6v12.81a6 6 0 0 0 12 0v-12.81a6 6 0 0 0 -6-6z"/><path d="m119.45 191a6 6 0 0 0 -6 6v78a6 6 0 0 0 12 0v-78a6 6 0 0 0 -6-6z"/></svg>