<?xml version="1.0" standalone="no"?>
<!DOCTYPE svg PUBLIC "-//W3C//DTD SVG 20010904//EN"
 "http://www.w3.org/TR/2001/REC-SVG-20010904/DTD/svg10.dtd">
<svg version="1.0" xmlns="http://www.w3.org/2000/svg"
 width="100.000000pt" height="100.000000pt" viewBox="0 0 100.000000 100.000000"
 preserveAspectRatio="xMidYMid meet">
<metadata>
Created by potrace 1.16, written by Peter Selinger 2001-2019
</metadata>
<g transform="translate(0.000000,100.000000) scale(0.100000,-0.100000)"
fill="#000000" stroke="none">
<path d="M394 974 c-12 -3 -29 -13 -37 -22 -14 -15 -13 -26 6 -104 11 -49 24
-88 27 -88 3 0 23 18 44 39 l39 40 -32 36 c-17 20 -29 40 -26 46 8 12 162 12
170 -1 4 -6 -10 -27 -30 -47 l-36 -36 43 -44 c23 -23 45 -43 48 -43 3 0 15 42
27 93 21 91 21 92 2 112 -16 17 -34 20 -122 21 -56 1 -112 0 -123 -2z"/>
<path d="M260 883 c-102 -35 -133 -78 -209 -285 l-51 -138 0 -180 0 -180 90 0
90 0 0 148 c1 125 4 152 20 182 l19 35 1 -222 0 -223 280 0 280 0 0 217 c0
174 3 215 13 205 8 -9 14 -65 17 -175 l5 -162 93 -3 94 -3 -4 193 -4 193 -48
125 c-75 199 -109 243 -207 275 -61 21 -59 22 -84 -86 -10 -44 -23 -83 -28
-86 -5 -3 -36 21 -68 53 l-59 58 -60 -59 c-37 -36 -63 -56 -69 -50 -5 6 -19
49 -31 98 -13 48 -26 87 -29 86 -3 0 -26 -8 -51 -16z"/>
</g>
</svg>
