<?xml version="1.0" standalone="no"?>
<!DOCTYPE svg PUBLIC "-//W3C//DTD SVG 20010904//EN"
 "http://www.w3.org/TR/2001/REC-SVG-20010904/DTD/svg10.dtd">
<svg version="1.0" xmlns="http://www.w3.org/2000/svg"
 width="96.000000pt" height="96.000000pt" viewBox="0 0 96.000000 96.000000"
 preserveAspectRatio="xMidYMid meet">
<metadata>
Created by potrace 1.16, written by Peter Selinger 2001-2019
</metadata>
<g transform="translate(0.000000,96.000000) scale(0.100000,-0.100000)"
fill="#000000" stroke="none">
<path d="M283 863 l-43 -15 0 -139 c0 -158 -12 -204 -55 -215 l-25 -6 2 -170
3 -170 88 -34 c49 -19 96 -34 106 -34 9 0 40 16 68 35 l52 35 55 -35 c30 -19
63 -35 73 -34 10 0 56 15 103 33 l85 33 3 170 2 171 -25 6 c-43 11 -55 57 -55
215 l0 139 -47 16 c-77 26 -75 28 -133 -109 -29 -69 -56 -125 -60 -125 -4 0
-31 56 -60 125 -59 138 -57 137 -137 108z"/>
</g>
</svg>
